{"title":"The Change Up 2011 TS XViD - IMAGiNE","uid":6604942,"size":1482114121,"categoryP":"video","categoryS":"movies","magnet":"?xt=urn:btih:8a7e688a94737857c924fd332b361724dfa38d22&amp;dn=The+Change+Up+2011+TS+XViD+-+IMAGiNE&amp;tr=udp%3A%2F%2Ftracker.openbittorrent.com%3A80&amp;tr=udp%3A%2F%2Fopen.demonii.com%3A1337&amp;tr=udp%3A%2F%2Ftracker.coppersurfer.tk%3A6969&amp;tr=udp%3A%2F%2Fexodus.desync.com%3A6969","seeders":0,"leechers":1,"uploader":"sceneline","files":103,"time":1313360051,"description":"- &lt;a href=&quot;\nhttp://www.Speed.Cd&quot; rel=&quot;nofollow&quot; target=&quot;_NEW&quot;&gt;\nhttp://www.Speed.Cd&lt;/a&gt; \n       &lt;a href=&quot;\nhttp://www.Speed.Cd&quot; rel=&quot;nofollow&quot; target=&quot;_NEW&quot;&gt;\nhttp://www.Speed.Cd&lt;/a&gt;      fast  and The Hottest Private Tracker on the net\n\n(((--Submit for invite!!--)))\n\nPlease Seed back to make the speed Faster!!!\n\n------------------nfo--------------------------\n-  \n\n[pre]ooooo ooo        ooooo       .o.         .oooooo.     o8o  ooooo      ooo oooooooooooo \n\n      888' `88.       .888'      .888.       d8P'  `Y8b    `&quot;'  `888b.     `8' `888'     `8 \n\n      888   888b     d'888      .8&quot;888.     888           oooo   8 `88b.    8   888         \n\n      888   8 Y88. .P  888     .8' `888.    888           `888   8   `88b.  8   888oooo8    \n\n      888   8  `888'   888    .88ooo8888.   888     ooooo  888   8     `88b.8   888    &quot;    \n\n      888   8    Y     888   .8'     `888.  `88.    .88'   888   8       `888   888       o \n\n     o888o o8o        o888o o88o     o8888o  `Y8bood8P'   o888o o8o        `8  o888ooooood8                                                 \n\n\n\n\n\n\n\n                  Another Fine Release Brought to you from - IMAGiNE                      \n\n                                                                                          \n\n\n\n******************************************************************************************\n\n                        The Change Up 2011 TS XViD - IMAGiNE                              \n\n******************************************************************************************\n\n\n\nRipper ...........: IMAGiNE              IMDB Rating.......: 6.1/10                             \n\nVideo Codec.......: XViD                 Release Date......: 14/08/11\n\nAudio Codec.......: MP3                  Theatre Date......: 05/08/11\n\nAudio Bitrate.....: 128                  Runtime...........: 1h 46mn\n\nSubtitles.........: NIL                  Language..........: ENGLISH\n\nResolution........: 640 x 288            IMDb URL..........: http://www.imdb.com/title/tt1488555/\n\n\n\n\n\n[color=yellow]DETAILS:[/color]\n\n\n\nVideo\nID                               : 0\nFormat                           : MPEG-4 Visual\nFormat profile                   : Advanced Simple@L5\nFormat settings, BVOP            : 2\nFormat settings, QPel            : No\nFormat settings, GMC             : No warppoints\nFormat settings, Matrix          : Default (MPEG)\nMuxing mode                      : Packed bitstream\nCodec ID                         : XVID\nCodec ID/Hint                    : XviD\nDuration                         : 1h 46mn\nBit rate                         : 1 697 Kbps\nWidth                            : 640 pixels\nHeight                           : 288 pixels\nDisplay aspect ratio             : 2.222\nFrame rate                       : 29.000 fps\nColor space                      : YUV\nChroma subsampling               : 4:2:0\nBit depth                        : 8 bits\nScan type                        : Progressive\nCompression mode                 : Lossy\nBits/(Pixel*Frame)               : 0.318\nStream size                      : 1.27 GiB (92%)\nWriting library                  : XviD 64\n\nAudio\nID                               : 1\nFormat                           : MPEG Audio\nFormat version                   : Version 1\nFormat profile                   : Layer 3\nMode                             : Joint stereo\nMode extension                   : MS Stereo\nCodec ID                         : 55\nCodec ID/Hint                    : MP3\nDuration                         : 1h 46mn\nBit rate mode                    : Constant\nBit rate                         : 128 Kbps\nChannel(s)                       : 2 channels\nSampling rate                    : 44.1 KHz\nCompression mode                 : Lossy\nStream size                      : 97.9 MiB (7%)\nAlignment                        : Split accross interleaves\nInterleave, duration             : 34 ms (1.00 video frame)\n\n\n\n[color=yellow]SOURCES:[/color]\n\n\n\nVIDEO: ............... The Change Up 2011 CAM XviD ERDNA Thanks :D\n\nAUDIO: ............... Thanks Matey :P\n\n\n\n[color=yellow]NOTES:[/color]\n\nOk heres another one........\nFirst we made a script to crop \nresize and sharpen\nThen we made some adjustments \nto the colors as \nthey were off.......\nAudio is nice LiNE we filtered \nsynced and muxed to \nour encode :P\n\nEnjoy!\n\n\n\n[color=yellow]SCREENS:[/color]\n\n\n\n\n\n\n\n\n\n\n\n\n[color=yellow]GREETS:[/color]\n\n\n\nFLAWL3SS,KINOPARK,Rx,ELEKTRI4KA,ADDiCTED,Autotron,CiNEDUB,\n\nAnd to all the other p2p grps past and present \n\n\n\n[COLOR=RED]Looking for these,syncers,cammers,audio,silver supplier.....Have anything to offer????......\n\nContact us &lt;a class=&quot;__cf_email__&quot; href=&quot;/cdn-cgi/l/email-protection&quot; data-cfemail=&quot;61080c0006080f0406130e141121091412090c00080d4f020e0c&quot;&gt;[email&amp;#160;protected]&lt;/a&gt;&lt;script cf-hash='f9e31' type=&quot;text/javascript&quot;&gt;\n/* &lt;![CDATA[ */!function(){try{var t=&quot;currentScript&quot;in document?document.currentScript:function(){for(var t=document.getElementsByTagName(&quot;script&quot;),e=t.length;e--;)if(t[e].getAttribute(&quot;cf-hash&quot;))return t[e]}();if(t&amp;&amp;t.previousSibling){var e,r,n,i,c=t.previousSibling,a=c.getAttribute(&quot;data-cfemail&quot;);if(a){for(e=&quot;&quot;,r=parseInt(a.substr(0,2),16),n=2;a.length-n;n+=2)i=parseInt(a.substr(n,2),16)^r,e+=String.fromCharCode(i);e=document.createTextNode(e),c.parentNode.replaceChild(e,c)}}}catch(u){}}();/* ]]&gt; */&lt;/script&gt;[/COLOR]","torrent":{"xt":"urn:btih:8a7e688a94737857c924fd332b361724dfa38d22","amp;dn":"The+Change+Up+2011+TS+XViD+-+IMAGiNE","amp;tr":["udp%3A%2F%2Ftracker.openbittorrent.com%3A80","udp%3A%2F%2Fopen.demonii.com%3A1337","udp%3A%2F%2Ftracker.coppersurfer.tk%3A6969","udp%3A%2F%2Fexodus.desync.com%3A6969"],"infoHash":"8a7e688a94737857c924fd332b361724dfa38d22","infoHashBuffer":{"type":"Buffer","data":[138,126,104,138,148,115,120,87,201,36,253,51,43,54,23,36,223,163,141,34]},"announce":[],"urlList":[]}}